<?xml version="1.0" encoding="UTF-8"?>
<svg id="Layer_2" data-name="Layer 2" xmlns="http://www.w3.org/2000/svg" viewBox="0 0 42.13 41.07">
  <defs>
    <style>
      .cls-1 {
        fill: #fff;
        stroke-width: 0px;
      }
    </style>
  </defs>
  <g id="Layer_1-2" data-name="Layer 1">
    <g id="vlpa">
      <g id="vlpb">
        <g id="vlpc">
          <g id="vlpd">
            <path class="cls-1" d="M32.37,20.1v.17c-.13.09-.27.13-.41.14-.21.02-.54.02-1,.02h-3.7c.05-.44.18-.86.39-1.26.45-.88,1.36-1.39,2.33-1.34,1.04-.03,1.97.63,2.28,1.62.07.21.11.42.11.65Z"/>
            <path class="cls-1" d="M34.67,0H7.46C3.34,0,0,3.34,0,7.46v26.15c0,4.13,3.34,7.46,7.46,7.46h27.21c4.12,0,7.46-3.33,7.46-7.46V7.46c0-4.12-3.34-7.46-7.46-7.46ZM22.31,28.89h-3.67c-.12.02-.24-.07-.28-.19l-1.44-4.22v.09h-6.53l-1.33,4.14c-.04.16-.18.27-.33.25h-3.3c-.2,0-.25-.1-.2-.32l5.65-16.2c.06-.17.11-.33.18-.54.07-.37.11-.75.11-1.14-.02-.09.05-.18.14-.19h4.54c.12,0,.21.05.23.14l6.41,17.9c.05.19,0,.28-.18.28ZM36.02,22.01c-.04.33-.05.58-.07.74-.02.12-.13.23-.25.23-.1,0-.3.01-.58.03-.28.04-.61.05-1.02.05s-.82-.07-1.28-.07h-5.56c.07.55.25,1.09.54,1.57.32.47.76.84,1.28,1.05.71.3,1.48.45,2.25.44.62-.02,1.23-.07,1.83-.2.54-.07,1.07-.21,1.56-.4.09-.07.14-.03.14.14v2.69c0,.07-.02.14-.04.21-.03.05-.07.08-.12.12-.56.25-1.14.42-1.75.53-.83.15-1.65.22-2.5.21-1.33,0-2.45-.21-3.37-.62-.86-.37-1.61-.95-2.21-1.66-.56-.69-.96-1.46-1.21-2.3-.24-.83-.37-1.69-.37-2.57,0-.94.14-1.87.44-2.79.28-.87.72-1.68,1.32-2.4.58-.7,1.3-1.27,2.12-1.67.83-.4,1.81-.54,2.93-.54.93-.02,1.86.15,2.72.54.72.32,1.35.79,1.85,1.4.45.6.82,1.27,1.05,2.01.23.7.33,1.42.33,2.14,0,.42,0,.79-.03,1.12ZM14.99,18.31c-.17-.55-.33-1.07-.51-1.62-.17-.54-.33-1.05-.47-1.56-.14-.49-.26-.95-.39-1.37h-.03c-.16.76-.35,1.51-.6,2.27-.26.84-.53,1.72-.81,2.59-.22.9-.51,1.72-.77,2.46h4.46c-.11-.37-.25-.81-.4-1.26-.16-.48-.32-.99-.48-1.51Z"/>
          </g>
        </g>
      </g>
    </g>
  </g>
</svg>