<?xml version="1.0" encoding="UTF-8"?>
<svg id="Layer_2" data-name="Layer 2" xmlns="http://www.w3.org/2000/svg" viewBox="0 0 41.14 41.13">
  <defs>
    <style>
      .cls-1, .cls-2 {
        fill: #fff;
      }

      .cls-1, .cls-2, .cls-3 {
        stroke-width: 0px;
      }

      .cls-2 {
        fill-rule: evenodd;
      }

      .cls-3 {
        fill: #111;
      }
    </style>
  </defs>
  <g id="Layer_1-2" data-name="Layer 1">
    <g>
      <path class="cls-2" d="M41.12,20.58v-.08h.01v-.28h-.01v-.08h.01v-.11s0-.17,0-.17h-.02v-.08h.01v-.11s-.01-.17-.01-.17h-.02v-.08h.01v-.11s-.01-.17-.01-.17h-.02v-.08h.01v-.11s-.02-.17-.02-.17h-.02v-.08h.01l-.02-.1v-.17h-.02s-.01-.08-.01-.08h.01v-.11s-.02-.17-.02-.17h-.02s-.01-.08-.01-.08h.01l-.02-.11v-.17s-.03.01-.03.01h0s-.01-.08-.01-.08h.01s-.02-.11-.02-.11v-.17h-.03s-.01-.08-.01-.08h.01l-.02-.11-.02-.17h-.02s0,0,0,0v-.07s0,0,0,0l-.03-.11-.02-.17h-.02s-.01-.07-.01-.07h.01s-.02-.11-.02-.11l-.03-.17h-.02s-.01-.08-.01-.08h.01l-.03-.1-.03-.17h-.01s-.02-.08-.02-.08h0l-.03-.1-.03-.17h-.02s-.01-.07-.01-.07h.01s-.04-.11-.04-.11l-.03-.17h-.02s0,0,0,0v-.07s0,0,0,0l-.04-.11-.04-.16h0s-.02-.08-.02-.08h.01l-.04-.1-.04-.17h-.01s-.01,0-.01,0v-.07s0,0,0,0l-.04-.11-.05-.16h-.01s-.02-.07-.02-.07h.01s-.04-.11-.04-.11l-.05-.16h-.02s-.02-.07-.02-.07h.01s-.04-.11-.04-.11l-.05-.16h0s-.01,0-.01,0l-.02-.07h.01l-.04-.1-.05-.16h-.02s-.03-.08-.03-.08h.01l-.04-.1-.06-.16h-.01s0,0,0,0l-.03-.07h.01l-.05-.1-.05-.16h-.02l-.03-.07h.01l-.05-.1-.06-.16h-.01s0,0,0,0l-.03-.07h.01l-.05-.1-.07-.16h0s0,0,0,0l-.03-.06h.01s-.05-.1-.05-.1l-.07-.16h-.01s-.01,0-.01,0l-.03-.07h0l-.05-.1-.07-.15h-.02l-.03-.07h.01l-.05-.1-.08-.15h-.01s0,0,0,0l-.03-.07-.05-.09-.08-.16h-.01s0,0,0,0l-.04-.06h0s-.06-.1-.06-.1l-.07-.15h-.02s0,0,0,0l-.03-.06h0s-.06-.1-.06-.1l-.08-.15h-.01s0,0,0,0l-.04-.06h.01s-.06-.1-.06-.1l-.08-.14h-.02l-.04-.07h.01l-.06-.09-.09-.15h-.01s0,0,0,0l-.04-.06h.01l-.07-.09-.08-.15h-.02s0,0,0,0l-.04-.06h.01l-.07-.09-.09-.14h-.01s0,0,0,0l-.04-.06h0s-.06-.09-.06-.09l-.09-.14h-.02l-.04-.06h.01s-.07-.09-.07-.09l-.1-.14h-.01s-.01,0-.01,0l-.04-.06h.01s-.07-.09-.07-.09l-.1-.14h-.01s0,0,0,0l-.05-.05h.01s-.07-.09-.07-.09l-.1-.14h-.01s-.01,0-.01,0l-.04-.05h.01s-.08-.09-.08-.09l-.1-.14h-.01s-.01.01-.01.01l-.04-.06h.01s-.08-.09-.08-.09l-.1-.13h-.01s0,0,0,0l-.04-.05h0s-.07-.09-.07-.09l-.11-.13h-.01s-.01,0-.01,0l-.04-.05h.01s-.08-.08-.08-.08l-.11-.13h-.01s-.01,0-.01,0l-.04-.05h0s-.08-.09-.08-.09l-.11-.12h-.01s-.01,0-.01,0l-.04-.05h0s-.08-.08-.08-.08l-.11-.13h-.01s-.01,0-.01,0l-.04-.05-.2-.2h-.01s0,0,0,0l-.05-.05h0s-.08-.08-.08-.08l-.12-.12h-.01s-.05-.04-.05-.04h0s-.08-.08-.08-.08l-.12-.12h0s-.01,0-.01,0l-.05-.05-.08-.07-.12-.12h-.01s-.01.01-.01.01l-.05-.05h.01s-.09-.08-.09-.08l-.12-.11h-.01s-.01,0-.01,0l-.05-.04h0s-.08-.08-.08-.08l-.13-.11h0s-.01,0-.01,0l-.05-.04h0s-.09-.07-.09-.07l-.13-.11h-.01s-.01,0-.01,0l-.05-.04h.01s-.09-.07-.09-.07l-.13-.11h0s-.01,0-.01,0l-.06-.04h.01s-.09-.07-.09-.07l-.13-.11h-.01s-.01.01-.01.01l-.05-.04h0s-.09-.07-.09-.07l-.13-.11v.02s-.02-.01-.02-.01l-.06-.04h.01s-.09-.07-.09-.07l-.14-.1h-.01s-.01.01-.01.01l-.05-.04h0s-.09-.07-.09-.07l-.14-.1h-.01s0,.01,0,.01l-.05-.04h0s-.09-.06-.09-.06l-.14-.1h-.01s-.01,0-.01,0l-.06-.04h.01s-.1-.06-.1-.06l-.14-.1h-.01s-.06-.03-.06-.03h0s-.09-.06-.09-.06l-.15-.09h-.01s-.06-.03-.06-.03h0s-.1-.06-.1-.06l-.14-.09v.02s-.02-.01-.02-.01l-.06-.03h.01s-.1-.06-.1-.06l-.14-.09h-.01s-.01.01-.01.01l-.06-.03h0s-.1-.06-.1-.06l-.14-.08h-.01s-.01,0-.01,0l-.06-.03h0s-.1-.05-.1-.05l-.14-.08h-.01s0,0,0,0l-.06-.03h0s-.1-.05-.1-.05l-.15-.08h0s-.07-.02-.07-.02h.01s-.1-.05-.1-.05l-.15-.08h-.01s-.01.01-.01.01l-.06-.03h0s-.1-.05-.1-.05l-.15-.07h-.01s-.01.01-.01.01l-.06-.03h0s-.1-.05-.1-.05l-.16-.07h0s-.01,0-.01,0l-.06-.03h0s-.1-.04-.1-.04l-.16-.07h-.01s-.07-.02-.07-.02h0s-.1-.04-.1-.04l-.16-.07v.02h-.01s-.07-.03-.07-.03h.01s-.11-.04-.11-.04l-.15-.07v.02s-.02,0-.02,0l-.06-.02h0s-.11-.04-.11-.04l-.15-.06h-.01s-.01.01-.01.01l-.06-.02h0s-.11-.04-.11-.04l-.16-.06h0s0,.01,0,.01l-.07-.02h0s-.11-.04-.11-.04l-.16-.05h-.01s-.07-.01-.07-.01h0s-.11-.04-.11-.04l-.16-.05v.02h0s-.07-.03-.07-.03h0s-.1-.03-.1-.03l-.16-.05v.02s-.02-.01-.02-.01h-.06v-.02l-.11-.02-.16-.05h0s-.01.01-.01.01l-.06-.02h0s-.11-.03-.11-.03l-.16-.04v.02s-.02-.01-.02-.01h-.06v-.02l-.11-.02-.17-.04h0s-.01,0-.01,0h-.07s.01-.02.01-.02l-.11-.02-.17-.04v.02h0l-.07-.02h0s-.11-.02-.11-.02l-.16-.04v.02h-.01l-.07-.02h0s-.11-.02-.11-.02l-.17-.03v.02h-.01s-.07-.02-.07-.02h0s-.11-.02-.11-.02l-.16-.03v.02s-.08-.01-.08-.01h0s-.11-.02-.11-.02l-.17-.03v.02h-.08v-.02h-.11s-.17-.03-.17-.03h0s-.01.01-.01.01h-.07v-.02h-.11l-.16-.02h0s-.08.01-.08.01h0s-.1-.01-.1-.01l-.17-.02h0s-.08.01-.08.01h0s-.11-.01-.11-.01l-.17-.02v.02h-.08V0h-.28s0,.01,0,.01h-.08v-.02h-.11s-.17,0-.17,0h0s-.08,0-.08,0h0s-.11,0-.11,0h-.17s0,.01,0,.01h-.08s-.28-.01-.28-.01v.02h-.08s-.11,0-.11,0h-.17s-.08.01-.08.01h0s-.1.01-.1.01h-.17s0,.01,0,.01h-.07s0,0,0,0h-.11s-.17.02-.17.02h0s-.01.01-.01.01h-.07s0,0,0,0h-.11s-.17.02-.17.02v.02h-.08s-.11,0-.11,0h-.17s.01.03.01.03h-.09s-.1.01-.1.01l-.17.02h0s-.01.01-.01.01h-.07s0,0,0,0l-.11.02-.17.02v.02h-.07s-.01,0-.01,0l-.1.02-.17.02h0s-.01.02-.01.02h-.07s0,0,0,0l-.11.02-.16.03h0s-.01,0-.01,0h-.07s0,0,0,0l-.11.03-.17.03h0s-.07.03-.07.03h0s-.11.01-.11.01l-.17.03v.02s0,0,0,0h-.07s-.11.04-.11.04l-.16.03h0s-.01.01-.01.01l-.07.02h0s-.11.02-.11.02l-.16.04h0s-.01.01-.01.01l-.07.02h0s-.1.02-.1.02l-.17.04v.02l-.07.02h0s-.1.02-.1.02l-.16.04v.02h-.01l-.07.02h0s-.1.03-.1.03l-.17.04v.02s0,0,0,0l-.07.02h0s-.1.03-.1.03l-.17.05h0s-.07.03-.07.03l-.1.04-.16.05h0s-.01.01-.01.01l-.07.03h0s-.1.03-.1.03l-.16.05v.02l-.07.02h0s-.1.04-.1.04l-.16.05v.02h-.01l-.06.02h-.01l-.1.04-.16.06h.01s-.01.02-.01.02l-.06.02h-.01s-.1.04-.1.04l-.16.06v.02s0,0,0,0l-.06.03h0s-.1.04-.1.04l-.15.06v.02l-.07.03h0s-.1.04-.1.04l-.16.07h0s-.06.04-.06.04h-.01s-.09.05-.09.05l-.16.07h0s-.06.04-.06.04h-.01l-.09.05-.16.07v.02s0,0,0,0l-.06.03h-.01s-.09.05-.09.05l-.15.07v.02s0,0,0,0l-.07.03h0s-.09.05-.09.05l-.15.08h0s-.01.02-.01.02l-.06.03h0s-.09.05-.09.05l-.15.08v.02l-.07.03-.09.06-.15.08h.01s-.01.02-.01.02l-.06.03h-.01s-.09.06-.09.06l-.14.08h.01s-.01.02-.01.02l-.06.04h-.01s-.09.05-.09.05l-.14.09h0s0,.02,0,.02l-.06.04h0s-.08.05-.08.05l-.15.09v.02s0,0,0,0l-.06.04h0s-.09.06-.09.06l-.14.09h.01s-.01.02-.01.02l-.06.04h0s-.09.06-.09.06l-.14.09v.02s0,0,0,0l-.06.04-.08.07-.14.09v.02s0,0,0,0l-.06.04h-.01l-.08.07-.13.1h0s-.06.06-.06.06h-.01s-.08.06-.08.06l-.13.1v.02s0,0,0,0l-.05.05h-.01s-.08.06-.08.06l-.13.11v.02l-.06.04-.08.07-.13.1v.02s0,0,0,0l-.05.05h0s-.08.07-.08.07l-.13.11h.01s-.01.02-.01.02l-.05.04h-.01s-.07.07-.07.07l-.13.11v.02s0,0,0,0l-.05.05-.08.07-.12.12h0s-.05.06-.05.06h-.01l-.07.08-.13.11h.01v.02l-.05.05h-.01s-.07.07-.07.07l-.12.12h.01s-.06.07-.06.07h-.01s-.07.08-.07.08l-.12.12h.01s-.05.06-.05.06h-.01l-.07.08-.11.13h0s-.05.06-.05.06h-.01l-.06.08-.12.13h.01v.02l-.05.05h-.01s-.06.08-.06.08l-.12.12h.01v.02l-.05.05-.07.09-.11.13h.01s-.05.07-.05.07h-.01s-.06.08-.06.08l-.11.13h.01v.02l-.05.05-.07.09-.1.13h.01s-.01.02-.01.02l-.04.05h0l-.06.09-.1.13h.01v.02l-.05.05-.06.09-.1.14h0s-.04.07-.04.07h-.01l-.05.09-.1.14h0,0s-.04.07-.04.07l-.06.09-.1.14h.02s0,.02,0,.02l-.04.05h-.01l-.05.09-.09.14h0s0,.02,0,.02l-.03.06h-.01l-.05.09-.1.14h.02s-.01.02-.01.02l-.03.06h-.01l-.05.09-.09.15h.01s-.04.07-.04.07h-.01l-.05.1-.08.14h.01s-.01.02-.01.02l-.03.06h-.01s-.05.09-.05.09l-.08.15h.01v.02l-.03.06h-.01s-.05.09-.05.09l-.08.15h.01v.02l-.03.06h-.01s-.05.1-.05.1l-.07.14h.01s-.01.02-.01.02l-.03.06h-.01l-.04.1-.07.15h.01v.02l-.03.06h0l-.04.1-.08.15h.02s-.01.02-.01.02l-.03.06h-.01l-.03.1-.07.15h0v.02l-.03.06h-.01l-.04.1-.07.16h.02-.01s-.02.08-.02.08h-.01s-.04.1-.04.1l-.06.15h.01v.02l-.03.06h-.01l-.03.1-.06.16h.01s-.03.08-.03.08h-.01l-.03.1-.06.16h.02s-.01.02-.01.02l-.02.06h-.01l-.03.1-.05.16h.01v.02l-.03.06h-.01l-.02.11-.06.16h.02s-.03.08-.03.08h-.01l-.02.1-.05.16h.01v.02l-.02.06h-.01l-.02.11-.05.16h.01s-.02.08-.02.08h-.01l-.02.11-.05.16h.02s-.02.08-.02.08h-.01l-.02.11-.04.16h.01s-.02.08-.02.08h-.01l-.02.11-.04.16h.02s-.02.08-.02.08h-.01v.11s-.05.16-.05.16h.01v.09s-.02,0-.02,0l-.02.11-.03.17h0s0,.08,0,.08h-.01v.11s-.04.16-.04.16h.01v.08h-.02v.11s-.04.17-.04.17h.01s-.01.08-.01.08h-.01v.11s-.03.17-.03.17h.01s-.01.08-.01.08h-.01v.11l-.03.16h.02s-.01.08-.01.08h0v.11l-.03.17h.02s-.01.08-.01.08h-.01v.11l-.02.17h.02s-.01.08-.01.08h-.01v.28s0,0,0,0v.08h-.01v.28s0,0,0,0v.08h0v.28s0,0,0,0v.08h0v.27h0v.08h0s0,.11,0,.11v.17h.01v.08h-.01v.11s.01.17.01.17h.02v.08h-.01v.11s.01.17.01.17h.02v.08h-.01l.02.11v.17h.02v.08h-.01l.02.11v.17h.02v.07s0,.01,0,.01v.1s.03.17.03.17h.01s.01.08.01.08h-.01l.02.11v.17h.03s.01.08.01.08h-.01l.02.1.02.17h0s.01.08.01.08h-.01l.02.11.02.17h.02v.07s0,.01,0,.01l.03.1.02.17h.02s.01.08.01.08h-.01l.02.1.03.17h.02s.01.08.01.08h-.01l.03.11.03.16h.02s.01.08.01.08h-.01l.03.11.03.16h.02s.01.08.01.08h-.01l.04.1.03.17h.02s.02.07.02.07h-.01s.03.11.03.11l.04.17h.01s.01,0,.01,0v.07s0,0,0,0l.04.1.04.17h.02l.02.07h-.01s.03.11.03.11l.05.16h0s.02.07.02.07h0s.03.11.03.11l.05.16h.02s.02.07.02.07h-.01s.04.11.04.11l.05.16h.02l.02.07h-.01s.04.11.04.11l.06.16h.01l.03.07h-.01l.04.1.06.16h.02l.02.07h-.01l.05.1.05.16h.02s.03.07.03.07h-.01s.05.1.05.1l.06.16h.02s.02.07.02.07h-.01l.05.1.07.16h.01l.03.07h-.01l.05.1.07.15h.02l.03.07h-.01l.05.1.07.15h.02s.03.07.03.07h-.01l.05.1.08.15h.01l.04.07h0l.05.1.08.15h0s.01,0,.01,0l.03.06h-.01s.06.1.06.1l.07.15h.02s0,0,0,0l.04.06h-.01s.06.1.06.1l.08.15h.01l.04.06h-.01s.06.1.06.1l.08.15h.02s0,0,0,0l.04.06h-.01l.06.09.09.15h.01l.04.06h-.01l.07.09.08.15h.02s0,0,0,0l.04.06h-.01l.07.09.09.14h.02l.03.06h0s.06.09.06.09l.1.15h.01l.04.05h0s.06.09.06.09l.1.15h0s.01-.01.01-.01l.04.06h-.01s.07.09.07.09l.1.14h.01s.01,0,.01,0l.04.06h-.01l.07.08.1.14h0s.01,0,.01,0l.04.06h-.01l.08.08.1.14h.01s.01,0,.01,0l.04.05h-.01s.08.09.08.09l.1.13h.01s.01,0,.01,0l.04.05h0s.07.09.07.09l.11.13h.01s.01,0,.01,0l.04.05h0s.07.09.07.09l.11.12h.02l.05.05h0s.08.09.08.09l.11.13h.01s.01-.01.01-.01l.04.05h0s.08.09.08.09l.11.12h.01s.06.05.06.05h0s.08.08.08.08l.12.12h.01l.05.05h0s.08.08.08.08l.12.12h.01l.05.05.08.07.12.12h.01s.01,0,.01,0l.04.05.09.07.12.12h.01s0,0,0,0l.05.04h-.01s.09.08.09.08l.12.11h.01s.06.05.06.05l.08.07.13.11h.01s.01,0,.01,0l.05.04h-.01s.09.08.09.08l.13.11h.01s.01-.01.01-.01l.05.05.09.07.12.11v-.02s.02.01.02.01l.06.04h-.01s.09.07.09.07l.13.11h.01s.01,0,.01,0l.05.05.09.06.14.11h0s.01-.01.01-.01l.06.04h0s.1.07.1.07l.13.1h.01s.01-.01.01-.01l.05.05.09.06.14.1h.01s.01-.01.01-.01l.05.04h0s.09.07.09.07l.14.09h.01s.01-.01.01-.01l.06.04h-.01s.1.07.1.07l.14.09h.01s.01-.01.01-.01l.05.04h0s.1.06.1.06l.14.09h.01s.01-.01.01-.01l.05.04h0s.1.06.1.06l.14.09h.01s.01-.01.01-.01l.06.04h-.01s.1.05.1.05l.15.09h0s.01-.01.01-.01l.06.04h0s.1.05.1.05l.14.09v-.02s.02.01.02.01l.06.03h0s.1.05.1.05l.15.09v-.02h.01s.06.04.06.04h0s.1.05.1.05l.15.08h.01s.01,0,.01,0l.06.03h-.01s.11.05.11.05l.15.08h0s0-.01,0-.01l.06.03h0s.1.05.1.05l.16.07h0s.01-.01.01-.01l.06.03h0s.1.05.1.05l.16.07h0s.01-.01.01-.01l.07.03h-.01s.11.04.11.04l.15.07h.01s0,0,0,0l.06.03h0s.1.04.1.04l.16.07h0s.01,0,.01,0l.07.02h-.01s.11.05.11.05l.15.06h.01s.01,0,.01,0l.06.02h0s.11.04.11.04l.16.06h0s.01-.01.01-.01l.06.03.11.03.16.06h0s.01-.01.01-.01l.07.02h0s.1.04.1.04l.16.05h0s.01-.01.01-.01l.06.02h0s.11.04.11.04l.16.05h0s.01-.01.01-.01l.07.02h0s.1.03.1.03l.16.05h0s.01-.01.01-.01l.07.02h-.01s.11.03.11.03l.16.04h.01s.01-.01.01-.01l.07.02h0s.11.03.11.03l.16.04h.01s.01-.01.01-.01l.06.02.11.02.17.04h0s0-.01,0-.01l.07.02h0s.1.02.1.02l.17.04v-.02h.01s.07.02.07.02h0s.11.02.11.02l.16.04v-.02h.02l.06.02h0s.11.02.11.02l.17.03h0s0-.01,0-.01h.07v.02h.11s.16.04.16.04v-.02h.02l.06.02h.11s.17.04.17.04v-.02h.01s.07,0,.07,0h0s.11.02.11.02l.17.02h0s.01-.01.01-.01h.07v.02h.11l.17.02h0s.08-.01.08-.01h0s.11.02.11.02h.16s.01,0,.01,0h.07v.02h.28s0,0,0,0h.08s.11.01.11.01h.17s0-.01,0-.01h.08v.02h.11s.17,0,.17,0h0s.08-.01.08-.01h0s.11,0,.11,0h.17s0-.01,0-.01h.08v.02h.11s.17-.01.17-.01h0s.36-.01.36-.01v-.02h.08s.11,0,.11,0h.17s-.01-.02-.01-.02h.19s.17,0,.17,0v-.02h.08s.11-.01.11-.01h.17v-.02h.08s0,0,0,0l.11-.02h.17v-.02h.01s.06-.01.06-.01h0s.1-.01.1-.01l.17-.02h0s.01-.01.01-.01h.07s0,0,0,0l.11-.02.17-.02h0s.01-.02.01-.02h.07s.1-.02.1-.02l.17-.02h0s.01,0,.01,0h.07s.11-.03.11-.03l.16-.02v-.02h.08s0,0,0,0l.11-.03.17-.02v-.02s0,0,0,0h.07s0,0,0,0l.11-.03.17-.03v-.02s0,0,0,0h.07s0,0,0,0l.11-.03.17-.04h-.01s.01-.01.01-.01l.07-.02h0s.11-.02.11-.02l.16-.04h0s.01-.01.01-.01l.07-.02h0s.1-.02.1-.02l.17-.04v-.02h.01l.06-.02h.01s.1-.02.1-.02l.16-.04v-.02h.01l.07-.02h0s.1-.03.1-.03l.17-.04v-.02s0,0,0,0l.07-.02h0s.1-.03.1-.03l.17-.04v-.02s0,0,0,0l.07-.02h0s.1-.03.1-.03l.17-.05v-.02s0,0,0,0l.07-.02h0s.1-.04.1-.04l.16-.05h0s.01-.02.01-.02l.06-.02h.01s.1-.04.1-.04l.16-.05h0s0-.02,0-.02l.07-.02h0s.1-.04.1-.04l.16-.06h-.01s.01-.02.01-.02l.07-.02h0s.1-.04.1-.04l.16-.06h-.01s.01-.02.01-.02l.06-.03h.01s.1-.04.1-.04l.15-.06h0s.01-.02.01-.02l.06-.03h0s.1-.04.1-.04l.16-.06v-.02s0,0,0,0l.06-.03h0s.09-.05.09-.05l.16-.06v-.02s0,0,0,0l.06-.03h.01s.09-.05.09-.05l.16-.07h-.01s.01-.02.01-.02l.06-.03h.01s.09-.05.09-.05l.15-.07v-.02l.07-.03h0s.09-.05.09-.05l.16-.08h-.01s.01-.02.01-.02l.06-.03h0s.09-.05.09-.05l.15-.08h0s.01-.02.01-.02l.06-.03h0s.09-.06.09-.06l.15-.08h0s0-.02,0-.02l.06-.03h.01s.09-.05.09-.05l.14-.09v-.02l.06-.03h.01l.09-.06.14-.09v-.02l.06-.03h.01l.09-.06.14-.09h-.01s.01-.02.01-.02l.06-.04h0s.09-.06.09-.06l.14-.09h0s0-.02,0-.02l.06-.04h0s.09-.06.09-.06l.14-.09h-.01s.01-.02.01-.02l.06-.04h0s.09-.06.09-.06l.13-.1v-.02l.06-.04h.01s.08-.06.08-.06l.14-.1v-.02s.05-.04.05-.04h.01l.08-.07.13-.1h-.01s.01-.02.01-.02l.06-.04.08-.07.14-.11h-.01s.06-.06.06-.06h0s.08-.07.08-.07l.13-.1v-.02l.06-.05h0s.08-.07.08-.07l.13-.11h0s0-.01,0-.01l.05-.05h0s.07-.07.07-.07l.13-.11h-.01s.06-.07.06-.07h.01s.07-.07.07-.07l.13-.11h-.01v-.02l.05-.05h.01s.07-.07.07-.07l.13-.12h-.01v-.02l.05-.05h.01s.07-.07.07-.07l.13-.12h-.02s.06-.07.06-.07h.01s.07-.08.07-.08l.12-.11h-.01v-.02l.05-.05h0l.07-.08.12-.12h0v-.02l.05-.05h.01l.06-.08.12-.13h-.01s.05-.07.05-.07h.01s.06-.08.06-.08l.12-.12h-.01v-.02l.05-.05h.01l.06-.09.11-.12h0s0-.02,0-.02l.04-.05h.01l.06-.09.11-.13h-.01v-.02l.05-.05h.01s.06-.08.06-.08l.1-.14h-.01s.01-.01.01-.01l.04-.06h.01s.06-.09.06-.09l.1-.13h-.01s.01-.02.01-.02l.04-.05h0l.05-.09.11-.13h-.02s.01-.02.01-.02l.04-.06h.01s.05-.09.05-.09l.1-.13h-.01s.01-.02.01-.02l.04-.06h.01s.05-.09.05-.09l.1-.14h-.01s.04-.07.04-.07h.01l.05-.09.09-.14h-.01s.01-.02.01-.02l.03-.06h.01s.05-.09.05-.09l.1-.14h-.02s.01-.02.01-.02l.04-.06.05-.09.09-.14h-.01s.01-.02.01-.02l.03-.06h0l.05-.09.09-.15h-.02s.01-.02.01-.02l.03-.06h.01s.05-.09.05-.09l.08-.15h-.01s.04-.08.04-.08l.05-.09.08-.15h-.01v-.02l.04-.06.05-.09.08-.15h-.02s.01-.02.01-.02l.03-.06h.01l.04-.1.08-.15h-.01s.03-.08.03-.08l.04-.1.08-.15h-.02.01s.03-.08.03-.08h.01s.03-.1.03-.1l.08-.15h-.02s.01-.02.01-.02l.02-.06h.01l.04-.1.07-.15h-.02s.01-.02.01-.02l.02-.06h.01l.04-.1.06-.16h-.01v-.02l.03-.06h.01l.03-.1.06-.16h-.01s.03-.08.03-.08h.01l.03-.1.06-.16h-.02.01s.02-.08.02-.08h0l.03-.1.06-.16h-.02v-.02l.03-.06h.01l.02-.1.06-.17h-.02.01s.02-.08.02-.08h.01s.02-.1.02-.1l.05-.16h-.01s.02-.08.02-.08h.01l.02-.11.05-.16h0s.02-.08.02-.08h.01l.02-.1.05-.17h-.02.01s.01-.08.01-.08h.01l.02-.1.05-.17h-.02s.02-.08.02-.08h.01l.02-.11.04-.16h-.02s.02-.08.02-.08h0v-.11s.05-.16.05-.16h-.01v-.08h.02l.02-.11.03-.17h-.01s.01-.08.01-.08h.01v-.11s.05-.16.05-.16h-.02s.01-.08.01-.08h.01v-.11s.04-.17.04-.17h-.01s.01-.08.01-.08h.01v-.11s.03-.16.03-.16h0v-.09s.02.01.02.01v-.11l.03-.17h-.02s.01-.08.01-.08h.01v-.11s.03-.17.03-.17h-.02s.01-.08.01-.08h0v-.11l.02-.17h-.02s.01-.08.01-.08h.01v-.28s0,0,0,0v-.08h.01v-.27s0-.01,0-.01v-.08h.01v-.27s-.01,0-.01,0ZM39.61,21.11c-.02.07-.02.15-.02.23,0,.18,0,.36-.02.54-.08,1.16-.27,2.3-.55,3.43-.55,2.12-1.44,4.09-2.67,5.9-.91,1.35-1.98,2.56-3.2,3.64-1.22,1.07-2.56,1.97-4.01,2.7-1.67.84-3.42,1.43-5.26,1.75-.71.12-1.42.2-2.14.25-.19.02-.39.01-.59.06h-1.13s-.1-.03-.15-.03c-.61-.03-1.2-.08-1.8-.16-1.11-.14-2.2-.38-3.26-.72-1.82-.59-3.52-1.42-5.09-2.51-1.46-1.02-2.75-2.21-3.88-3.59-1.32-1.62-2.36-3.4-3.09-5.36-.65-1.74-1.05-3.54-1.17-5.4,0-.1-.02-.2-.05-.31v-1.96c.03-.09.05-.18.05-.27.03-.44.07-.89.13-1.33.29-2.12.92-4.13,1.89-6.04.67-1.32,1.48-2.54,2.44-3.67.95-1.12,2.01-2.12,3.19-2.99,1.91-1.43,4.02-2.46,6.33-3.09,1.12-.3,2.26-.51,3.42-.6.21-.02.42,0,.63-.05h1.93c.15.04.3.02.45.03.76.07,1.52.16,2.28.31,2.38.47,4.58,1.36,6.62,2.67,1.58,1.02,2.98,2.25,4.2,3.68.98,1.15,1.81,2.4,2.49,3.74.81,1.6,1.38,3.27,1.71,5.02.17.93.3,1.87.3,2.81,0,.07.02.13.02.19v1.13Z"/>
      <g id="g7572">
        <g id="g6236">
          <path class="cls-3" d="M25.21,13.38l-.06.07s.03-.06.03-.09l.03.02Z"/>
          <g id="g6228">
            <path class="cls-1" d="M25.18,13.36s-.01.06-.03.09c-.04.2-.11.4-.19.6-.3.75-.71,1.44-1.16,2.1-.49.73-1.04,1.4-1.62,2.06-.41.46-.84.91-1.27,1.36-.1.1-.21.19-.34.24-.14.06-.27.06-.4-.01-.08-.04-.16-.08-.23-.14-.04-.03-.08-.06-.12-.1-1.25-1.19-2.4-2.46-3.31-3.96-.38-.62-.7-1.28-.9-1.99-.02-.04-.03-.08-.04-.12-.11-.4-.18-.8-.16-1.16-.01-2.54,1.76-4.79,4.22-5.17,1.5-.23,2.84.18,3.99,1.23.97.88,1.52,2.01,1.68,3.34.07.56.02,1.1-.12,1.63Z"/>
            <path class="cls-1" d="M33.05,26.41c-.42,2.4-2.54,4.1-4.96,4.08-.31.01-.65-.03-1-.1-1.02-.23-1.89-.69-2.56-1.52-.14-.17-.27-.35-.39-.53-.25-.35-.46-.72-.66-1.09-.34-.68-.63-1.38-.88-2.1-.31-.86-.57-1.74-.78-2.63-.11-.5.02-.81.57-.99.7-.22,1.41-.41,2.13-.57,1.19-.26,2.39-.43,3.62-.39.33.02.66.05.98.1.02,0,.03.01.05.01.99.18,1.84.63,2.52,1.36,1.18,1.23,1.65,2.7,1.36,4.37Z"/>
            <path class="cls-1" d="M18.91,22.52c-.07.32-.15.63-.24.95-.15.56-.33,1.13-.53,1.68-.25.72-.54,1.42-.89,2.1-.16.32-.34.63-.54.94-.15.23-.32.46-.5.68-.67.83-1.54,1.29-2.56,1.52-.35.07-.7.11-1.01.1-2.41.02-4.53-1.68-4.95-4.08-.29-1.67.18-3.14,1.35-4.37.69-.73,1.53-1.18,2.52-1.36.15-.03.31-.05.46-.06.19-.02.38-.04.58-.05,1.22-.04,2.43.13,3.62.39.72.16,1.43.35,2.13.57t.02.01c.53.18.65.49.54.98Z"/>
          </g>
        </g>
      </g>
    </g>
  </g>
</svg>