<?xml version="1.0" encoding="UTF-8"?>
<svg id="Layer_2" data-name="Layer 2" xmlns="http://www.w3.org/2000/svg" viewBox="0 0 362.32 303.58">
  <defs>
    <style>
      .cls-1 {
        fill: #b7b7b7;
      }

      .cls-1, .cls-2, .cls-3 {
        stroke-width: 0px;
      }

      .cls-2 {
        fill: #748993;
      }

      .cls-3 {
        fill: #94a1aa;
      }
    </style>
  </defs>
  <g id="Layer_1-2" data-name="Layer 1">
    <path class="cls-3" d="M136.29,285.21c-11,0-10-4-13-14l-32-105L336.29,22.21"/>
    <path class="cls-2" d="M136.29,285.21c7,0,11-4,16-8l45-43-56-34"/>
    <path class="cls-1" d="M141.29,200.21l135,99c14,9,26,4,30-14L361.29,27.21c5-22-9-32-24-25L16.29,126.21c-21,8-21,21-4,26l83,26,190-121c9-5,17-3,11,4"/>
  </g>
</svg>