<?xml version="1.0" encoding="UTF-8"?>
<svg id="Layer_2" data-name="Layer 2" xmlns="http://www.w3.org/2000/svg" viewBox="0 0 41.07 41.07">
  <defs>
    <style>
      .cls-1 {
        fill: #fff;
        stroke-width: 0px;
      }
    </style>
  </defs>
  <g id="Layer_1-2" data-name="Layer 1">
    <path class="cls-1" d="M34.91,0H6.16C2.76,0,0,2.76,0,6.16v28.75c0,3.4,2.76,6.16,6.16,6.16h28.75c3.4,0,6.16-2.76,6.16-6.16V6.16c0-3.4-2.76-6.16-6.16-6.16ZM34.01,11.71l-4.41,20.7c-.32,1.43-1.27,1.84-2.38,1.14-.02-.01-.03-.02-.05-.03l-6.16-4.52c-.28-.21-.67-.18-.93.06l-2.81,2.69s-.03.03-.04.04c0,0,0,0-.01,0-.49.39-1.21.02-1.18-.6l.31-5.3c.01-.19.1-.37.24-.5l12.17-10.91s.05-.05.08-.08c.41-.52-.2-.66-.89-.29-.02,0-.03.02-.05.03l-15.22,9.69h-.03s-6.63-2.09-6.63-2.09c-1.36-.4-1.36-1.44.32-2.09l25.75-9.95c1.2-.56,2.33.24,1.93,2.01Z"/>
  </g>
</svg>